<?xml version="1.0" encoding="utf-8"?><svg viewBox="0 0 83 83" xmlns="http://www.w3.org/2000/svg" xmlns:xlink="http://www.w3.org/1999/xlink"><style>:root>svg{display:none}:root>svg:target{display:block}</style><svg fill="none" viewBox="0 0 48 48" id="Button" xmlns="http://www.w3.org/2000/svg"><path opacity=".15" d="M0 24C0 10.745 10.745 0 24 0s24 10.745 24 24-10.745 24-24 24S0 37.255 0 24Z" fill="#706FE5"/><path fill-rule="evenodd" clip-rule="evenodd" d="M29.974 23.092c.703.406.7 1.408 0 1.815l-7.858 4.57c-.707.413-1.616-.084-1.616-.908v-9.142c0-.919.978-1.279 1.616-.908l7.858 4.573Z" fill="#706FE5"/></svg><svg fill="none" viewBox="0 0 24 22" id="Star" xmlns="http://www.w3.org/2000/svg"><path d="M11.103.817a1 1 0 0 1 1.794 0l2.69 5.453a1 1 0 0 0 .754.547l6.018.874a1 1 0 0 1 .554 1.706l-4.355 4.245a1 1 0 0 0-.287.885l1.028 5.993a1 1 0 0 1-1.451 1.054l-5.383-2.83a1 1 0 0 0-.93 0l-5.383 2.83a1 1 0 0 1-1.45-1.054l1.027-5.993a1 1 0 0 0-.287-.885L1.087 9.397a1 1 0 0 1 .554-1.706l6.018-.874a1 1 0 0 0 .753-.547L11.103.817Z" fill="#706FE5"/></svg><svg fill="none" viewBox="0 0 41 34" id="Xd" xmlns="http://www.w3.org/2000/svg"><path d="m18.242 7.607-2.246 11.246L25.5 26.47a.34.34 0 0 1 .118.21c.009.081-.086.052-.191.111l-4.266 1.547c-.298.108-.51.163-.707.024-.675-.64-1.361-1.255-2.036-1.896A80.078 80.078 0 0 0 16.3 24.58c-.737-.639-1.474-1.278-2.218-1.935l-.038.013c-.1.943-.239 1.9-.377 2.856s-.276 1.912-.402 2.843c-.145.938-.283 1.894-.435 2.813-.007.213-.149.286-.354.36L8.38 33.014c-.074.027-.116.085-.15-.008a.275.275 0 0 1-.037-.219l2.35-11.6-9.108-7.509c-.083-.054-.129-.122-.105-.173.017-.069.085-.115.16-.142l4.228-1.532c.093-.034.193-.049.274-.057.088.01.164.046.247.1a38.195 38.195 0 0 0 2.063 1.97c.737.64 1.45 1.266 2.198 1.88.731.62 1.425 1.254 2.106 1.913l.037-.013c.094-.962.214-1.911.34-2.842.126-.93.271-1.868.416-2.806.145-.938.264-1.887.397-2.8-.008-.08.002-.169.044-.226a.378.378 0 0 1 .229-.125l3.93-1.425c.087-.052.2-.03.252.056.026.012.015.1-.008.15ZM33.97 24.139a9.848 9.848 0 0 1-4.308.613 6.907 6.907 0 0 1-3.731-1.514c-1.101-.886-1.95-2.18-2.564-3.875a8.137 8.137 0 0 1-.4-4.302 8.227 8.227 0 0 1 1.915-3.96c1.04-1.2 2.477-2.12 4.32-2.789.094-.034.224-.08.399-.123.174-.042.36-.11.59-.172l-2.133-5.886c-.047-.13-.018-.225.112-.272L31.951.488c.087-.052.188-.005.234.063l.013.037 6.428 17.733c.122.335.275.7.442 1.104.18.377.333.743.467 1.053.047.13.031.262-.079.366-.82.76-1.736 1.43-2.712 1.994-.889.512-1.805.95-2.774 1.3Zm.475-4.387-2.97-8.196a5.073 5.073 0 0 0-.537.09c-.212.055-.423.11-.628.185-.727.263-1.4.675-1.93 1.247a4.44 4.44 0 0 0-1.083 1.952c-.194.745-.108 1.62.243 2.589a5.52 5.52 0 0 0 1.012 1.803c.368.436.81.782 1.317 1.02.476.206.999.311 1.537.285a5.186 5.186 0 0 0 1.634-.318c.28-.101.533-.215.769-.321.248-.07.44-.18.636-.336Z" fill="#FF61F6"/></svg><svg fill="none" viewBox="0 0 32 30" id="diamond" xmlns="http://www.w3.org/2000/svg"><g clip-path="url(#ba)"><path d="m6.11 7.153 6.605-2.94 7.07-1.513 7.576 5.286-7.594 17.885L3.1 15.886 6.11 7.153Z" fill="#FDB300"/><path d="m8.013 14.286 11.754 11.585L3.1 15.886l4.914-1.6ZM22.448 9.586l-2.68 16.285L27.36 7.986l-4.913 1.6Z" fill="#EA6C00"/><path d="m8.013 14.286 14.435-4.7-2.68 16.285L8.012 14.286Z" fill="#FDAD00"/><path d="M12.715 4.213 6.11 7.153l1.903 7.133 4.702-10.073ZM12.715 4.213l7.07-1.513 2.662 6.886-9.732-5.373Z" fill="#FDD231"/><path d="M27.361 7.986 19.785 2.7l2.663 6.886 4.913-1.6ZM3.099 15.886 6.11 7.153l1.903 7.133-4.914 1.6Z" fill="#FDAD00"/><path d="M12.715 4.213 8.013 14.286l14.435-4.7-9.733-5.373Z" fill="#FEEEB7"/></g><defs><clipPath id="ba"><path fill="#fff" transform="rotate(-18.036 26.01 2.241)" d="M0 0h25.568v22.788H0z"/></clipPath></defs></svg><svg fill="none" viewBox="0 0 83 83" id="elipseBef" xmlns="http://www.w3.org/2000/svg"><path d="M41.5 0A41.5 41.5 0 1 1 0 41.5h41.5V0Z" fill="#706FE5"/></svg><svg fill="none" viewBox="0 0 62 62" id="figma" xmlns="http://www.w3.org/2000/svg"><g clip-path="url(#da)"><path d="M30.752 56.317a8 8 0 0 0 5.17-10.063l-2.447-7.617-7.617 2.447a8 8 0 0 0 4.894 15.233Z" fill="#0ACF83"/><path d="M15.795 35.914a8 8 0 0 1 5.17-10.064l7.617-2.446 4.893 15.233-7.617 2.447a8 8 0 0 1-10.063-5.17Z" fill="#A259FF"/><path d="M10.902 20.68a8 8 0 0 1 5.164-10.061l7.617-2.447 4.893 15.234-7.61 2.444a8 8 0 0 1-10.064-5.17Z" fill="#F24E1E"/><path d="m23.689 8.17 7.616-2.446A8 8 0 1 1 36.2 20.957l-7.617 2.447L23.689 8.17Z" fill="#FF7262"/><path d="M46.262 26.127a8 8 0 1 1-15.233 4.893 8 8 0 0 1 15.233-4.893Z" fill="#1ABCFE"/></g><defs><clipPath id="da"><path fill="#fff" transform="rotate(-17.808 49.923 5.1)" d="M0 0h48v48H0z"/></clipPath></defs></svg></svg>